<svg width="22" height="22" viewBox="0 0 22 22" fill="none" xmlns="http://www.w3.org/2000/svg">
<rect width="22" height="22" fill="#1E1E1E"/>
<g clip-path="url(#clip0_0_1)">
<g filter="url(#filter0_d_0_1)">
<path d="M6.33567 5.03548C5.35303 6.16665 4.79152 9.27736 5.07227 11.8225C5.49341 16.2058 5.77416 16.4886 11.5297 16.9128C15.0391 17.1955 17.4255 16.7714 17.4255 15.923C17.4255 15.0746 15.6006 14.3676 13.2142 14.3676C9.42399 14.3676 9.00285 13.9434 9.00285 9.70155C9.00285 5.74246 9.42399 5.17687 12.5123 5.17687C14.7583 5.17687 15.741 5.88386 15.3199 6.87363C14.4776 9.13597 18.2678 9.27736 19.6716 7.01502C20.2331 6.02525 20.0927 5.88386 19.1101 6.44944C18.1274 7.01502 17.4255 6.59084 17.4255 5.31827C17.4255 2.34895 8.58172 2.20756 6.33567 5.03548Z" fill="#BBB73A" shape-rendering="crispEdges"/>
<path d="M11.4893 17.4111C13.2664 17.5543 14.7862 17.5213 15.8779 17.335C16.4191 17.2426 16.8903 17.1063 17.2402 16.9121C17.579 16.724 17.9258 16.4067 17.9258 15.9229C17.9257 15.5176 17.7057 15.1888 17.4355 14.9482C17.1651 14.7074 16.8008 14.5132 16.3906 14.3594C15.566 14.0503 14.45 13.8672 13.2139 13.8672C12.2659 13.8672 11.5702 13.8399 11.0479 13.7432C10.5336 13.6478 10.2448 13.4958 10.0566 13.2891C9.86253 13.0758 9.71422 12.7376 9.62207 12.1436C9.52988 11.5493 9.50293 10.7615 9.50293 9.70117C9.50294 8.714 9.52908 7.96713 9.61133 7.39551C9.69391 6.82155 9.82607 6.47869 9.99512 6.25977C10.1528 6.05566 10.3825 5.90969 10.7793 5.81348C11.1912 5.71363 11.7459 5.67676 12.5127 5.67676C13.6052 5.6768 14.2959 5.85262 14.6484 6.07617C14.815 6.18181 14.8776 6.2791 14.9004 6.34766C14.9221 6.41335 14.9281 6.51618 14.8594 6.67773L14.8516 6.69922C14.5947 7.38908 14.6608 8.02841 15.0703 8.49707C15.4535 8.93534 16.0495 9.1202 16.6357 9.14062C17.7377 9.1789 19.1058 8.6523 19.9375 7.51465L20.0967 7.27832L20.1016 7.27051L20.1064 7.26172C20.2496 7.00933 20.3647 6.78322 20.4307 6.5957C20.463 6.50368 20.4942 6.39052 20.499 6.27246C20.5037 6.15753 20.4855 5.95856 20.3252 5.79688C20.1637 5.63425 19.9631 5.61428 19.8467 5.61914C19.728 5.62411 19.6151 5.6568 19.5234 5.68945C19.3365 5.75609 19.111 5.87134 18.8604 6.01562C18.4391 6.25811 18.2394 6.19828 18.1719 6.1543C18.0864 6.09837 17.9258 5.89278 17.9258 5.31836C17.9258 4.27892 17.1434 3.58327 16.2129 3.16699C15.2667 2.74368 14.0183 2.53027 12.7334 2.50293C11.443 2.47548 10.0746 2.63483 8.87402 2.98926C7.69317 3.33792 6.6112 3.89465 5.95605 4.70996C5.37468 5.3809 4.96995 6.55137 4.73828 7.80762C4.50215 9.0883 4.42905 10.5517 4.5752 11.877C4.67954 12.9623 4.77887 13.8424 4.9668 14.5381C5.15919 15.2501 5.45737 15.819 5.98926 16.2432C6.50654 16.6556 7.19107 16.887 8.06152 17.0469C8.93378 17.207 10.0559 17.3045 11.4893 17.4102V17.4111Z" stroke="black" stroke-opacity="0.22" shape-rendering="crispEdges"/>
</g>
</g>
<defs>
<filter id="filter0_d_0_1" x="0" y="2" width="24.9999" height="24" filterUnits="userSpaceOnUse" color-interpolation-filters="sRGB">
<feFlood flood-opacity="0" result="BackgroundImageFix"/>
<feColorMatrix in="SourceAlpha" type="matrix" values="0 0 0 0 0 0 0 0 0 0 0 0 0 0 0 0 0 0 127 0" result="hardAlpha"/>
<feOffset dy="4"/>
<feGaussianBlur stdDeviation="2"/>
<feComposite in2="hardAlpha" operator="out"/>
<feColorMatrix type="matrix" values="0 0 0 0 1 0 0 0 0 1 0 0 0 0 1 0 0 0 0.25 0"/>
<feBlend mode="normal" in2="BackgroundImageFix" result="effect1_dropShadow_0_1"/>
<feBlend mode="normal" in="SourceGraphic" in2="effect1_dropShadow_0_1" result="shape"/>
</filter>
<clipPath id="clip0_0_1">
<rect width="21.3333" height="21.3333" fill="white"/>
</clipPath>
</defs>
</svg>
